REM DIRINDEX 1\6,1\2\7,1\2\8,1\2\9,1\3\10,1\3\11,1\4\12,1\4\13,1\4\14,1\5\15,1\5\16,1\5\17
REM DIRNAME folder01,folder02,folder03,folder04,folder05,folder06,folder07,folder08,folder09,folder10,folder11,folder12,folder13,folder14,folder15,folder16,folder17
TITLE ""
FILE "P2Q_j_1422-1435.mp3" MP3
  TRACK 01 AUDIO
    TITLE "12:cjc040_1011"
    INDEX 01 00:00:00
  TRACK 02 AUDIO
    TITLE "0:"
    INDEX 01 00:01:62
  TRACK 03 AUDIO
    TITLE "13:cjc040_1012"
    INDEX 01 00:02:47
  TRACK 04 AUDIO
    TITLE "0:"
    INDEX 01 00:04:27
  TRACK 05 AUDIO
    TITLE "14:cjc040_1013"
    INDEX 01 00:05:03
  TRACK 06 AUDIO
    TITLE "0:"
    INDEX 01 00:10:55
  TRACK 07 AUDIO
    TITLE "12:cjc040_1014"
    INDEX 01 00:11:33
  TRACK 08 AUDIO
    TITLE "0:"
    INDEX 01 00:13:12
  TRACK 09 AUDIO
    TITLE "13:cjc040_1015"
    INDEX 01 00:13:59
  TRACK 10 AUDIO
    TITLE "0:"
    INDEX 01 00:15:13
  TRACK 11 AUDIO
    TITLE "14:cjc040_1016"
    INDEX 01 00:15:68
  TRACK 12 AUDIO
    TITLE "0:"
    INDEX 01 00:20:61
  TRACK 13 AUDIO
    TITLE "12:cjc040_1017"
    INDEX 01 00:21:35
  TRACK 14 AUDIO
    TITLE "0:"
    INDEX 01 00:22:64
  TRACK 15 AUDIO
    TITLE "13:cjc040_1018"
    INDEX 01 00:23:42
  TRACK 16 AUDIO
    TITLE "0:"
    INDEX 01 00:24:67
  TRACK 17 AUDIO
    TITLE "14:cjc040_1019"
    INDEX 01 00:25:45
  TRACK 18 AUDIO
    TITLE "0:"
    INDEX 01 00:31:20
  TRACK 19 AUDIO
    TITLE "12:cjc040_1020"
    INDEX 01 00:31:73
  TRACK 20 AUDIO
    TITLE "0:"
    INDEX 01 00:33:62
  TRACK 21 AUDIO
    TITLE "13:cjc040_1021"
    INDEX 01 00:34:45
  TRACK 22 AUDIO
    TITLE "0:"
    INDEX 01 00:37:38
  TRACK 23 AUDIO
    TITLE "14:cjc040_1022"
    INDEX 01 00:38:14
  TRACK 24 AUDIO
    TITLE "0:"
    INDEX 01 00:43:70
  TRACK 25 AUDIO
    TITLE "12:cjc040_1023"
    INDEX 01 00:44:50
  TRACK 26 AUDIO
    TITLE "0:"
    INDEX 01 00:46:25
  TRACK 27 AUDIO
    TITLE "13:cjc040_1024"
    INDEX 01 00:47:03
  TRACK 28 AUDIO
    TITLE "0:"
    INDEX 01 00:49:18
  TRACK 29 AUDIO
    TITLE "14:cjc040_1025"
    INDEX 01 00:49:67
  TRACK 30 AUDIO
    TITLE "0:"
    INDEX 01 00:53:66
  TRACK 31 AUDIO
    TITLE "12:cjc040_1026"
    INDEX 01 00:54:44
  TRACK 32 AUDIO
    TITLE "0:"
    INDEX 01 00:56:24
  TRACK 33 AUDIO
    TITLE "13:cjc040_1027"
    INDEX 01 00:56:74
  TRACK 34 AUDIO
    TITLE "0:"
    INDEX 01 00:58:62
  TRACK 35 AUDIO
    TITLE "14:cjc040_1028"
    INDEX 01 00:59:30
  TRACK 36 AUDIO
    TITLE "0:"
    INDEX 01 01:04:21
  TRACK 37 AUDIO
    TITLE "12:cjc040_1029"
    INDEX 01 01:04:74
  TRACK 38 AUDIO
    TITLE "0:"
    INDEX 01 01:06:45
  TRACK 39 AUDIO
    TITLE "13:cjc040_1030"
    INDEX 01 01:07:23
  TRACK 40 AUDIO
    TITLE "0:"
    INDEX 01 01:09:30
  TRACK 41 AUDIO
    TITLE "14:cjc040_1031"
    INDEX 01 01:10:12
  TRACK 42 AUDIO
    TITLE "0:"
    INDEX 01 01:13:73
  TRACK 43 AUDIO
    TITLE "12:cjc040_1032"
    INDEX 01 01:14:47
  TRACK 44 AUDIO
    TITLE "0:"
    INDEX 01 01:16:36
  TRACK 45 AUDIO
    TITLE "13:cjc040_1033"
    INDEX 01 01:17:08
  TRACK 46 AUDIO
    TITLE "0:"
    INDEX 01 01:18:58
  TRACK 47 AUDIO
    TITLE "14:cjc040_1034"
    INDEX 01 01:19:34
  TRACK 48 AUDIO
    TITLE "0:"
    INDEX 01 01:24:43
  TRACK 49 AUDIO
    TITLE "12:cjc040_1035"
    INDEX 01 01:25:17
  TRACK 50 AUDIO
    TITLE "0:"
    INDEX 01 01:27:22
  TRACK 51 AUDIO
    TITLE "13:cjc040_1036"
    INDEX 01 01:27:69
  TRACK 52 AUDIO
    TITLE "0:"
    INDEX 01 01:29:62
  TRACK 53 AUDIO
    TITLE "14:cjc040_1037"
    INDEX 01 01:30:36
  TRACK 54 AUDIO
    TITLE "0:"
    INDEX 01 01:35:14
  TRACK 55 AUDIO
    TITLE "12:cjc040_1038"
    INDEX 01 01:35:73
  TRACK 56 AUDIO
    TITLE "0:"
    INDEX 01 01:37:58
  TRACK 57 AUDIO
    TITLE "13:cjc040_1039"
    INDEX 01 01:38:40
  TRACK 58 AUDIO
    TITLE "0:"
    INDEX 01 01:41:36
  TRACK 59 AUDIO
    TITLE "14:cjc040_1040"
    INDEX 01 01:42:12
  TRACK 60 AUDIO
    TITLE "0:"
    INDEX 01 01:46:65
  TRACK 61 AUDIO
    TITLE "12:cjc040_1041"
    INDEX 01 01:47:42
  TRACK 62 AUDIO
    TITLE "0:"
    INDEX 01 01:49:63
  TRACK 63 AUDIO
    TITLE "13:cjc040_1042"
    INDEX 01 01:50:45
  TRACK 64 AUDIO
    TITLE "0:"
    INDEX 01 01:52:24
  TRACK 65 AUDIO
    TITLE "14:cjc040_1043"
    INDEX 01 01:53:00
  TRACK 66 AUDIO
    TITLE "0:"
    INDEX 01 01:57:31
  TRACK 67 AUDIO
    TITLE "12:cjc040_1044"
    INDEX 01 01:58:11
  TRACK 68 AUDIO
    TITLE "0:"
    INDEX 01 02:00:67
  TRACK 69 AUDIO
    TITLE "13:cjc040_1045"
    INDEX 01 02:01:48
  TRACK 70 AUDIO
    TITLE "0:"
    INDEX 01 02:04:00
  TRACK 71 AUDIO
    TITLE "14:cjc040_1046"
    INDEX 01 02:04:59
  TRACK 72 AUDIO
    TITLE "0:"
    INDEX 01 02:09:46
  TRACK 73 AUDIO
    TITLE "12:cjc040_1047"
    INDEX 01 02:10:22
  TRACK 74 AUDIO
    TITLE "0:"
    INDEX 01 02:11:57
  TRACK 75 AUDIO
    TITLE "13:cjc040_1048"
    INDEX 01 02:12:40
  TRACK 76 AUDIO
    TITLE "0:"
    INDEX 01 02:15:64
  TRACK 77 AUDIO
    TITLE "14:cjc040_1049"
    INDEX 01 02:16:42
  TRACK 78 AUDIO
    TITLE "0:"
    INDEX 01 02:20:20
  TRACK 79 AUDIO
    TITLE "12:cjc040_1050"
    INDEX 01 02:21:04
  TRACK 80 AUDIO
    TITLE "0:"
    INDEX 01 02:22:35
  TRACK 81 AUDIO
    TITLE "13:cjc040_1051"
    INDEX 01 02:23:19
  TRACK 82 AUDIO
    TITLE "0:"
    INDEX 01 02:25:08
  TRACK 83 AUDIO
    TITLE "14:cjc040_1052"
    INDEX 01 02:25:61
  TRACK 84 AUDIO
    TITLE "0:"
    INDEX 01 02:30:36
